<!DOCTYPE svg PUBLIC "-//W3C//DTD SVG 1.1//EN" "http://www.w3.org/Graphics/SVG/1.1/DTD/svg11.dtd">
<!-- Uploaded to: SVG Repo, www.svgrepo.com, Transformed by: SVG Repo Mixer Tools -->
<svg fill="#FF8B1F" width="139px" height="139px" viewBox="0 0 24 24" id="facebook-circle" data-name="Flat Color" xmlns="http://www.w3.org/2000/svg" class="icon flat-color" stroke="#FF8B1F">
<g id="SVGRepo_bgCarrier" stroke-width="0"/>
<g id="SVGRepo_tracerCarrier" stroke-linecap="round" stroke-linejoin="round"/>
<g id="SVGRepo_iconCarrier">
<circle id="primary" cx="12" cy="12" r="10" style="fill: #ffffff;"/>
<path id="secondary" d="M17,9a1,1,0,0,1-1,1H14a1,1,0,0,0-1,1v2h2a1,1,0,0,1,0,2H13v7c-.33,0-.66.05-1,.05s-.67,0-1-.05V15H9a1,1,0,0,1,0-2h2V11a3,3,0,0,1,3-3h2A1,1,0,0,1,17,9Z" style="fill: #ffffff2ca9bc;"/>
</g>
</svg>